g ENV_RotatingFlag_MO
v -0.0513538 -0.1399103 0.8588057
v -0.1256064 -0.02544256 0.8588057
v -0.1256064 -0.02544256 7.428164
v -0.0513538 -0.1399103 7.435674
v 0.08491733 -0.1327636 0.8588057
v -0.1385673 -0.02544256 7.476858
v 0.08491733 -0.1327636 7.449483
v 0.1468147 -0.01114923 0.8588057
v -0.07994045 -0.1399103 7.522524
v -0.1573425 -0.02544256 7.488608
v 0.1468147 -0.01114923 7.455781
v 0.07256208 0.1031974 0.8588057
v 0.06238717 -0.1327636 7.559227
v -0.1397786 -0.1399103 7.562013
v -0.629749 -0.02544256 7.518043
v 0.07256208 0.1031974 7.448151
v -0.06370905 0.09605072 0.8588057
v 0.1202873 -0.01114923 7.585027
v -0.007141382 -0.1327636 7.653224
v -0.6318082 -0.1399103 7.592537
v -1.177377 -0.02544256 7.454691
v -0.06370905 0.09605072 7.434463
v -0.1256064 -0.02544256 0.8588057
v -0.1256064 -0.02544256 7.428164
v 0.05087983 0.1031974 7.554018
v -0.08963084 0.09617186 7.514893
v -0.1385673 -0.02544256 7.476858
v 0.03271034 -0.01114923 7.703492
v -0.1076792 -0.1327636 7.696467
v -1.194093 -0.1399103 7.527612
v -1.838989 -0.02544256 7.224666
v -0.01501483 0.1031974 7.643169
v -0.1426857 0.09617186 7.549778
v -0.1573425 -0.02544256 7.488608
v -0.09314361 -0.01114923 7.757638
v -0.6354421 -0.1327636 7.729293
v -0.1105863 0.1031974 7.684354
v -1.872784 -0.1399103 7.29153
v -2.315029 -0.02544256 6.899432
v -0.6314449 0.09617186 7.580182
v -0.629749 -0.02544256 7.518043
v -0.6370168 -0.01114923 7.791432
v -1.224618 -0.1327636 7.661218
v -0.6350787 0.1031974 7.716938
v -2.36869 -0.1399103 6.952729
v -2.568191 -0.02544256 6.521628
v -1.191307 0.09605072 7.515499
v -1.177377 -0.02544256 7.454691
v -1.238548 -0.01114923 7.721904
v -1.93456 -0.1327636 7.414234
v -1.221832 0.1031974 7.649105
v -2.634933 -0.1399103 6.555302
v -2.71391 -0.02544256 6.114389
v -1.867091 0.09617186 7.280507
v -1.838989 -0.02544256 7.224666
v -1.962783 -0.01114923 7.470075
v -2.467289 -0.1327636 7.05036
v -1.928988 0.1031974 7.403211
v -2.788163 -0.1399103 6.12735
v -2.71391 -0.02544256 1.791264
v -2.359847 0.09605072 6.943887
v -2.315029 -0.02544256 6.899432
v -2.512107 -0.01114923 7.094815
v -2.757517 -0.1327636 6.617199
v -2.458326 0.1031974 7.041517
v -2.788163 -0.1399103 1.781331
v -2.707248 -0.02544256 1.768854
v -2.62391 0.09605072 6.54973
v -2.568191 -0.02544256 6.521628
v -2.813236 -0.01114923 6.645301
v -2.924434 -0.1327636 6.15097
v -2.746494 0.1031974 6.611506
v -2.759818 -0.1399103 1.716284
v -2.684839 -0.02544256 1.762192
v -2.775807 0.09605072 6.12517
v -2.71391 -0.02544256 6.114389
v -2.986331 -0.01114923 6.161751
v -2.924434 -0.1327636 1.763283
v -2.912078 0.1031974 6.14879
v -2.775807 0.09605072 1.783027
v -2.71391 -0.02544256 1.791264
v -2.986331 -0.01114923 1.755046
v -2.912078 0.1031974 1.764857
v -2.751097 0.09605072 1.725006
v -2.707248 -0.02544256 1.768854
v -2.896453 -0.1327636 1.660322
v -2.88543 0.1031974 1.666742
v -2.952051 -0.01114923 1.628223
v -2.81578 -0.1327636 1.57965
v -2.847879 -0.01114923 1.524051
v -2.694771 -0.1399103 1.68794
v -1.79841 -0.02544256 1.762192
v -2.71282 -0.1327636 1.55179
v -1.79841 -0.1399103 1.68794
v -0.8939333 -0.02544256 1.762192
v -2.809361 0.1031974 1.590672
v -2.721056 -0.01114923 1.489771
v -1.79841 -0.1327636 1.55179
v -0.8939333 -0.1399103 1.68794
v 0.01054357 -0.02544256 1.762192
v 0.01054357 -0.1297354 1.68794
v -0.8939333 -0.1327636 1.55179
v 0.01054357 -0.1231944 1.55179
v -2.711245 0.1031974 1.564024
v -1.79841 -0.01114923 1.489771
v -0.8939333 -0.01114923 1.489771
v 0.01054357 -0.01114923 1.489771
v -2.693076 0.09605072 1.700295
v -2.684839 -0.02544256 1.762192
v -1.79841 0.1031974 1.564024
v -0.8939333 0.1031974 1.564024
v 0.01054357 0.09314361 1.564024
v -1.79841 0.09605072 1.700295
v -1.79841 -0.02544256 1.762192
v -0.8939333 0.09605072 1.700295
v 0.01054357 0.0866026 1.700295
v -0.8939333 -0.02544256 1.762192
v 0.01054357 -0.02544256 1.762192
v -0.07049233 0.02349392 7.60998
v -0.9434755 0.02349392 7.631905
v -0.07049233 0.02349392 1.649905
v -1.881626 0.02349392 7.383709
v -2.581999 0.02349392 6.850253
v -2.889669 0.02349392 6.106395
v -2.889669 0.02349392 1.649905
v -0.07049233 -0.06190265 7.60998
v -0.07049233 -0.06190265 1.649905
v -0.9434755 -0.06190265 7.631905
v -1.881626 -0.06190265 7.383709
v -2.581999 -0.06190265 6.850253
v -2.889669 -0.06190265 6.106395
v -2.889669 -0.06190265 1.649905
vt 0.954403 0.01131491
vt 0.9457154 0.01131491
vt 0.9466807 0.3829515
vt 0.954403 0.3810209
vt 0.9621253 0.009384327
vt 0.9466807 0.3877779
vt 0.9621253 0.3790903
vt 0.9698476 0.008419037
vt 0.954403 0.3877779
vt 0.9466807 0.3926044
vt 0.9698476 0.378125
vt 0.9785352 0.009384327
vt 0.9621253 0.3839167
vt 0.954403 0.3926044
vt 0.9466807 0.4215631
vt 0.9785352 0.3790903
vt 0.9862576 0.01131491
vt 0.9698476 0.3829515
vt 0.9630906 0.3887432
vt 0.954403 0.4215631
vt 0.9466807 0.4543829
vt 0.9862576 0.3819862
vt 0.9939799 0.0122802
vt 0.9939799 0.3829515
vt 0.9775699 0.3839167
vt 0.9852923 0.3877779
vt 0.9930146 0.3877779
vt 0.9698476 0.3887432
vt 0.9621253 0.3935696
vt 0.954403 0.4543829
vt 0.947646 0.4958903
vt 0.9775699 0.3887432
vt 0.9852923 0.3926044
vt 0.9930146 0.3916391
vt 0.9698476 0.3935696
vt 0.9621253 0.4215631
vt 0.9775699 0.3935696
vt 0.9553683 0.4958903
vt 0.9486113 0.5306408
vt 0.9862576 0.4215631
vt 0.9939799 0.4205978
vt 0.9708129 0.4225283
vt 0.9630906 0.4543829
vt 0.9785352 0.4215631
vt 0.9563336 0.5306408
vt 0.9486113 0.5586342
vt 0.9862576 0.4543829
vt 0.9939799 0.4543829
vt 0.9708129 0.4543829
vt 0.9630906 0.4949251
vt 0.9785352 0.4543829
vt 0.9563336 0.5586342
vt 0.9486113 0.5856623
vt 0.9872229 0.4958903
vt 0.9949452 0.4958903
vt 0.9708129 0.4949251
vt 0.9640559 0.5306408
vt 0.9795005 0.4949251
vt 0.9563336 0.584697
vt 0.9486113 0.8318112
vt 0.9872229 0.5306408
vt 0.9949452 0.5306408
vt 0.9717782 0.5306408
vt 0.9640559 0.5586342
vt 0.9795005 0.5306408
vt 0.9563336 0.8308459
vt 0.9486113 0.8356724
vt 0.9881881 0.5586342
vt 0.9959105 0.5586342
vt 0.9717782 0.5586342
vt 0.9640559 0.584697
vt 0.9804658 0.5586342
vt 0.9572989 0.8366376
vt 0.9486113 0.8404988
vt 0.9881881 0.584697
vt 0.9959105 0.584697
vt 0.9727435 0.584697
vt 0.9640559 0.8298806
vt 0.9804658 0.584697
vt 0.9881881 0.8308459
vt 0.9959105 0.8308459
vt 0.9727435 0.8298806
vt 0.9804658 0.8298806
vt 0.9881881 0.8356724
vt 0.9959105 0.8356724
vt 0.9650212 0.8337418
vt 0.9795005 0.8337418
vt 0.9727435 0.8337418
vt 0.9650212 0.8385682
vt 0.9727435 0.8395335
vt 0.9563336 0.8414641
vt 0.9486113 0.8916591
vt 0.9640559 0.8433947
vt 0.9563336 0.8926244
vt 0.9486113 0.9437848
vt 0.9795005 0.8385682
vt 0.9727435 0.8433947
vt 0.9640559 0.8935897
vt 0.9563336 0.9437848
vt 0.9486113 0.9949452
vt 0.9563336 0.9949452
vt 0.9640559 0.9437848
vt 0.9650212 0.9949452
vt 0.9804658 0.8433947
vt 0.9727435 0.8935897
vt 0.9727435 0.9437848
vt 0.9727435 0.9949452
vt 0.9881881 0.8414641
vt 0.9959105 0.8404988
vt 0.9804658 0.8935897
vt 0.9804658 0.9437848
vt 0.9795005 0.9949452
vt 0.9881881 0.8926244
vt 0.9959105 0.8916591
vt 0.9881881 0.9437848
vt 0.9881881 0.9949452
vt 0.9959105 0.9437848
vt 0.9959105 0.9939799
vt 0.01131491 0.9862576
vt 0.1512819 0.9891534
vt 0.01131491 0.009384327
vt 0.3009018 0.9486113
vt 0.4119101 0.8617352
vt 0.4611399 0.7391434
vt 0.4611399 0.009384327
vt 0.9264096 0.9862576
vt 0.9389583 0.01517607
vt 0.7835467 0.9881881
vt 0.6319962 0.9457154
vt 0.5190573 0.8569087
vt 0.4698275 0.7352822
vt 0.4794804 0.009384327
vn -0.4509768 -0.8901893 0.06467561
vn -0.998703 -0.05091431 0
vn -0.9843061 -0.05098003 -0.1689454
vn -0.4108527 -0.9117018 0
vn 0.5450939 -0.8352877 0.0718819
vn -0.7960722 -0.05882311 -0.6023361
vn 0.56078 -0.8274447 0.02934465
vn 0.998703 0.05091424 0
vn -0.2862723 -0.9294047 -0.2329273
vn -0.3176446 -0.05882311 -0.9463835
vn 0.9921493 0.05097997 0.1141964
vn 0.450977 0.8901892 -0.06467608
vn 0.5372508 -0.8117585 0.2289315
vn -0.1215676 -0.9215616 -0.368708
vn 0.0274508 -0.05098003 -0.9983224
vn 0.4745062 0.874503 0.1004407
vn -0.5450938 0.8352877 -0.07188356
vn 0.9137185 0.05097997 0.4031371
vn 0.3647031 -0.8039154 0.4697995
vn 0.01176465 -0.9058754 -0.4233807
vn 0.2235277 -0.05098003 -0.9733635
vn -0.5058784 0.8588169 -0.08075004
vn -0.998703 -0.05091431 0
vn -0.9843061 -0.05098003 -0.1689454
vn 0.45882 0.86666 0.1959199
vn -0.3647031 0.8901892 -0.2730475
vn -0.7960722 -0.05882311 -0.6023361
vn 0.6235247 0.05097997 0.7801398
vn 0.1372539 -0.8196016 0.5562505
vn 0.09803849 -0.9058754 -0.4120414
vn 0.450977 -0.05098003 -0.8910785
vn 0.3176447 0.8588169 0.4019147
vn -0.1450969 0.874503 -0.4628081
vn -0.3176446 -0.05882311 -0.9463835
vn 0.2313708 0.05097997 0.971529
vn -0.01176453 -0.8274447 0.561424
vn 0.1137246 0.86666 0.4857645
vn 0.1843123 -0.9058754 -0.3813379
vn 0.7097985 -0.05882311 -0.7019444
vn 0.01176465 0.8509738 -0.5250763
vn 0.0274508 -0.05098003 -0.9983224
vn -0.02745068 0.05097997 0.9983224
vn -0.1294107 -0.8274447 0.5464323
vn -0.01176453 0.8823462 0.4704539
vn 0.2862723 -0.9137185 -0.2883862
vn 0.8901893 -0.05098003 -0.4527296
vn 0.1137246 0.8588169 -0.4995
vn 0.2235277 -0.05098003 -0.9733635
vn -0.2235277 0.05097997 0.9733635
vn -0.2549 -0.8196016 0.5131074
vn -0.1058815 0.874503 0.4733219
vn 0.3725462 -0.9058754 -0.2014919
vn 0.9843062 -0.05882311 -0.1663765
vn 0.2313708 0.8588169 -0.457057
vn 0.450977 -0.05098003 -0.8910785
vn -0.4509768 0.05097997 0.8910785
vn -0.4117615 -0.8117585 0.4141263
vn -0.2156845 0.874503 0.4344245
vn 0.4039185 -0.9137185 -0.04436513
vn 0.9843062 -0.05098003 0.1689447
vn 0.349017 0.86666 -0.3564936
vn 0.7097985 -0.05882311 -0.7019444
vn -0.7097985 0.05097997 0.7025576
vn -0.5058784 -0.8196016 0.2689613
vn -0.3490169 0.86666 0.3564936
vn 0.3960754 -0.9137185 0.09078946
vn 0.7019554 -0.06666619 0.7090939
vn 0.45882 0.8588169 -0.2278546
vn 0.8901893 -0.05098003 -0.4527296
vn -0.8901892 0.05097997 0.4527298
vn -0.5686231 -0.8196016 0.07014997
vn -0.4274477 0.874503 0.2292007
vn 0.247057 -0.9372478 0.2460275
vn 0.1921554 -0.05098003 0.9800395
vn 0.4901924 0.86666 -0.09280042
vn 0.9843062 -0.05882311 -0.1663765
vn -0.9843061 0.05097997 0.1689454
vn -0.5686231 -0.8196016 -0.07014997
vn -0.4823492 0.86666 0.1274353
vn 0.4901924 0.86666 0.09280042
vn 0.9843062 -0.05098003 0.1689447
vn -0.9921492 0.05097997 -0.1141969
vn -0.4823492 0.874503 -0.05083052
vn 0.3098016 0.8980323 0.3123475
vn 0.7019554 -0.06666619 0.7090939
vn -0.5137215 -0.8039154 -0.2996835
vn -0.4431338 0.8588169 -0.257033
vn -0.86666 0.05097997 -0.4962877
vn -0.2941153 -0.8039154 -0.5169295
vn -0.4980353 0.05097997 -0.8656569
vn 0.07450926 -0.9137185 0.3994582
vn 0.003921568 -0.05098003 0.998692
vn -0.07450914 -0.8196016 -0.5680683
vn 0.003921568 -0.8901893 0.455574
vn 0.003921568 -0.05098003 0.998692
vn -0.2549 0.8588169 -0.4443642
vn -0.1294107 0.05097997 -0.9902797
vn 0.003921568 -0.8352877 -0.549799
vn 0.003921568 -0.8901893 0.455574
vn 0.003921568 -0.05098003 0.998692
vn 0.01176465 -0.8980324 0.4397721
vn 0.003921568 -0.8431308 -0.5376942
vn 0.003921568 -0.8431308 -0.5376942
vn -0.06666613 0.874503 -0.4804166
vn 0.003921568 0.05097997 -0.998692
vn 0.003921568 0.05097997 -0.998692
vn 0.003921568 0.05097997 -0.998692
vn 0.09019542 0.86666 0.4906784
vn 0.1921554 -0.05098003 0.9800395
vn 0.003921568 0.8901892 -0.4555742
vn 0.003921568 0.8901892 -0.4555742
vn 0.01176465 0.8980323 -0.4397722
vn 0.003921568 0.8352877 0.5497991
vn 0.003921568 -0.05098003 0.998692
vn 0.003921568 0.8431307 0.5376944
vn 0.003921568 0.8431307 0.5376944
vn 0.003921568 -0.05098003 0.998692
vn 0.003921568 -0.05098003 0.998692
vn -0.003921509 0.9999923 -0.000345267
vn -0.003921509 0.9999923 -0.000345267
vn -0.003921509 0.9999923 -0.000345267
vn -0.003921509 0.9999923 -0.000345267
vn -0.003921509 0.9999923 -0.000345267
vn -0.003921509 0.9999923 -0.000345267
vn -0.003921509 0.9999923 -0.000345267
vn -0.003921509 -0.9999924 0
vn -0.003921509 -0.9999924 0
vn -0.003921509 -0.9999924 0
vn -0.003921509 -0.9999924 0
vn -0.003921509 -0.9999924 0
vn -0.003921509 -0.9999924 0
vn -0.003921509 -0.9999924 0
g ENV_RotatingFlag_MO_0
f 3/3/3 2/2/2 1/1/1
f 4/4/4 3/3/3 1/1/1
f 4/4/4 1/1/1 5/5/5
f 6/6/6 3/3/3 4/4/4
f 7/7/7 4/4/4 5/5/5
f 7/7/7 5/5/5 8/8/8
f 9/9/9 6/6/6 4/4/4
f 9/9/9 4/4/4 7/7/7
f 10/10/10 6/6/6 9/9/9
f 11/11/11 7/7/7 8/8/8
f 11/11/11 8/8/8 12/12/12
f 13/13/13 9/9/9 7/7/7
f 13/13/13 7/7/7 11/11/11
f 14/14/14 10/10/10 9/9/9
f 15/15/15 10/10/10 14/14/14
f 16/16/16 11/11/11 12/12/12
f 16/16/16 12/12/12 17/17/17
f 18/18/18 13/13/13 11/11/11
f 18/18/18 11/11/11 16/16/16
f 19/19/19 9/9/9 13/13/13
f 14/14/14 9/9/9 19/19/19
f 19/19/19 13/13/13 18/18/18
f 20/20/20 15/15/15 14/14/14
f 21/21/21 15/15/15 20/20/20
f 22/22/22 16/16/16 17/17/17
f 22/22/22 17/17/17 23/23/23
f 24/24/24 22/22/22 23/23/23
f 25/25/25 18/18/18 16/16/16
f 25/25/25 16/16/16 22/22/22
f 26/26/26 22/22/22 24/24/24
f 26/26/26 25/25/25 22/22/22
f 27/27/27 26/26/26 24/24/24
f 28/28/28 19/19/19 18/18/18
f 28/28/28 18/18/18 25/25/25
f 29/29/29 14/14/14 19/19/19
f 20/20/20 14/14/14 29/29/29
f 29/29/29 19/19/19 28/28/28
f 30/30/30 21/21/21 20/20/20
f 31/31/31 21/21/21 30/30/30
f 32/32/32 28/28/28 25/25/25
f 32/32/32 25/25/25 26/26/26
f 33/33/33 26/26/26 27/27/27
f 34/34/34 33/33/33 27/27/27
f 35/35/35 29/29/29 28/28/28
f 35/35/35 28/28/28 32/32/32
f 36/36/36 20/20/20 29/29/29
f 30/30/30 20/20/20 36/36/36
f 36/36/36 29/29/29 35/35/35
f 37/37/37 32/32/32 26/26/26
f 37/37/37 35/35/35 32/32/32
f 33/33/33 37/37/37 26/26/26
f 38/38/38 31/31/31 30/30/30
f 39/39/39 31/31/31 38/38/38
f 40/40/40 33/33/33 34/34/34
f 41/41/41 40/40/40 34/34/34
f 42/42/42 36/36/36 35/35/35
f 42/42/42 35/35/35 37/37/37
f 43/43/43 30/30/30 36/36/36
f 38/38/38 30/30/30 43/43/43
f 43/43/43 36/36/36 42/42/42
f 44/44/44 37/37/37 33/33/33
f 44/44/44 42/42/42 37/37/37
f 40/40/40 44/44/44 33/33/33
f 45/45/45 39/39/39 38/38/38
f 46/46/46 39/39/39 45/45/45
f 47/47/47 40/40/40 41/41/41
f 48/48/48 47/47/47 41/41/41
f 49/49/49 43/43/43 42/42/42
f 49/49/49 42/42/42 44/44/44
f 50/50/50 38/38/38 43/43/43
f 45/45/45 38/38/38 50/50/50
f 50/50/50 43/43/43 49/49/49
f 51/51/51 44/44/44 40/40/40
f 51/51/51 49/49/49 44/44/44
f 47/47/47 51/51/51 40/40/40
f 52/52/52 46/46/46 45/45/45
f 53/53/53 46/46/46 52/52/52
f 54/54/54 47/47/47 48/48/48
f 55/55/55 54/54/54 48/48/48
f 56/56/56 50/50/50 49/49/49
f 56/56/56 49/49/49 51/51/51
f 57/57/57 45/45/45 50/50/50
f 52/52/52 45/45/45 57/57/57
f 57/57/57 50/50/50 56/56/56
f 58/58/58 51/51/51 47/47/47
f 58/58/58 56/56/56 51/51/51
f 54/54/54 58/58/58 47/47/47
f 59/59/59 53/53/53 52/52/52
f 60/60/60 53/53/53 59/59/59
f 61/61/61 54/54/54 55/55/55
f 62/62/62 61/61/61 55/55/55
f 63/63/63 57/57/57 56/56/56
f 63/63/63 56/56/56 58/58/58
f 64/64/64 52/52/52 57/57/57
f 59/59/59 52/52/52 64/64/64
f 64/64/64 57/57/57 63/63/63
f 65/65/65 58/58/58 54/54/54
f 65/65/65 63/63/63 58/58/58
f 61/61/61 65/65/65 54/54/54
f 66/66/66 60/60/60 59/59/59
f 67/67/67 60/60/60 66/66/66
f 68/68/68 61/61/61 62/62/62
f 69/69/69 68/68/68 62/62/62
f 70/70/70 64/64/64 63/63/63
f 70/70/70 63/63/63 65/65/65
f 71/71/71 59/59/59 64/64/64
f 66/66/66 59/59/59 71/71/71
f 71/71/71 64/64/64 70/70/70
f 72/72/72 65/65/65 61/61/61
f 72/72/72 70/70/70 65/65/65
f 68/68/68 72/72/72 61/61/61
f 73/73/73 67/67/67 66/66/66
f 74/74/74 67/67/67 73/73/73
f 75/75/75 68/68/68 69/69/69
f 76/76/76 75/75/75 69/69/69
f 77/77/77 71/71/71 70/70/70
f 77/77/77 70/70/70 72/72/72
f 78/78/78 66/66/66 71/71/71
f 73/73/73 66/66/66 78/78/78
f 78/78/78 71/71/71 77/77/77
f 79/79/79 72/72/72 68/68/68
f 79/79/79 77/77/77 72/72/72
f 75/75/75 79/79/79 68/68/68
f 80/80/80 75/75/75 76/76/76
f 81/81/81 80/80/80 76/76/76
f 82/82/82 78/78/78 77/77/77
f 82/82/82 77/77/77 79/79/79
f 83/83/83 79/79/79 75/75/75
f 80/80/80 83/83/83 75/75/75
f 83/83/83 82/82/82 79/79/79
f 84/84/84 80/80/80 81/81/81
f 85/85/85 84/84/84 81/81/81
f 86/86/86 78/78/78 82/82/82
f 86/86/86 73/73/73 78/78/78
f 87/87/87 83/83/83 80/80/80
f 84/84/84 87/87/87 80/80/80
f 88/88/88 82/82/82 83/83/83
f 88/88/88 86/86/86 82/82/82
f 87/87/87 88/88/88 83/83/83
f 89/89/89 73/73/73 86/86/86
f 89/89/89 86/86/86 88/88/88
f 90/90/90 88/88/88 87/87/87
f 90/90/90 89/89/89 88/88/88
f 91/91/91 73/73/73 89/89/89
f 91/91/91 74/74/74 73/73/73
f 92/92/92 74/74/74 91/91/91
f 93/93/93 91/91/91 89/89/89
f 93/93/93 89/89/89 90/90/90
f 94/94/94 92/92/92 91/91/91
f 94/94/94 91/91/91 93/93/93
f 95/95/95 92/92/92 94/94/94
f 96/96/96 90/90/90 87/87/87
f 96/96/96 87/87/87 84/84/84
f 97/97/97 93/93/93 90/90/90
f 97/97/97 90/90/90 96/96/96
f 98/98/98 94/94/94 93/93/93
f 98/98/98 93/93/93 97/97/97
f 99/99/99 95/95/95 94/94/94
f 99/99/99 94/94/94 98/98/98
f 100/100/100 95/95/95 99/99/99
f 101/101/101 100/100/100 99/99/99
f 101/101/101 99/99/99 102/102/102
f 102/102/102 99/99/99 98/98/98
f 103/103/103 101/101/101 102/102/102
f 104/104/104 96/96/96 84/84/84
f 104/104/104 97/97/97 96/96/96
f 105/105/105 98/98/98 97/97/97
f 102/102/102 98/98/98 105/105/105
f 105/105/105 97/97/97 104/104/104
f 103/103/103 102/102/102 106/106/106
f 106/106/106 102/102/102 105/105/105
f 107/107/107 103/103/103 106/106/106
f 108/108/108 104/104/104 84/84/84
f 108/108/108 84/84/84 85/85/85
f 109/109/109 108/108/108 85/85/85
f 110/110/110 105/105/105 104/104/104
f 106/106/106 105/105/105 110/110/110
f 110/110/110 104/104/104 108/108/108
f 107/107/107 106/106/106 111/111/111
f 111/111/111 106/106/106 110/110/110
f 112/112/112 107/107/107 111/111/111
f 113/113/113 108/108/108 109/109/109
f 113/113/113 110/110/110 108/108/108
f 111/111/111 110/110/110 113/113/113
f 114/114/114 113/113/113 109/109/109
f 112/112/112 111/111/111 115/115/115
f 115/115/115 111/111/111 113/113/113
f 115/115/115 113/113/113 114/114/114
f 116/116/116 112/112/112 115/115/115
f 117/117/117 115/115/115 114/114/114
f 116/116/116 115/115/115 117/117/117
f 118/118/118 116/116/116 117/117/117
f 121/121/121 120/120/120 119/119/119
f 122/122/122 120/120/120 121/121/121
f 123/123/123 122/122/122 121/121/121
f 124/124/124 123/123/123 121/121/121
f 125/125/125 124/124/124 121/121/121
f 128/128/128 127/127/127 126/126/126
f 128/128/128 129/129/129 127/127/127
f 129/129/129 130/130/130 127/127/127
f 130/130/130 131/131/131 127/127/127
f 131/131/131 132/132/132 127/127/127
