g ENV_CornerRamp01
v -0.12 1.825392E-06 1.825392E-06
v -1.825392E-06 0.08000182 1.825392E-06
v -1.825392E-06 1.825392E-06 1.825392E-06
v -1.825392E-06 1.825392E-06 1.825392E-06
v -1.825392E-06 0.08000182 1.825392E-06
v -1.825392E-06 1.825392E-06 -0.12
v -0.05996612 1.825392E-06 -0.0600357
v -0.12 1.825392E-06 1.825392E-06
v -1.825392E-06 1.825392E-06 1.825392E-06
v -1.825392E-06 1.825392E-06 -0.12
v -0.12 1.825392E-06 1.825392E-06
v -0.05996612 1.825392E-06 -0.0600357
v -1.825392E-06 0.08000182 1.825392E-06
v -1.825392E-06 1.825392E-06 -0.12
vt 0.3753666 0.1251222
vt 0.6246334 0.2502444
vt 0.6246334 0
vt 0.6246334 0
vt 0.6246334 0.2502444
vt 0.8748778 0.1251222
vt 0.4379277 0.8123167
vt 0.3753666 1
vt 0.6246334 1
vt 0.5004888 0.6246334
vt 0.3753666 0.1251222
vt 0.4379277 0.3753666
vt 0.6246334 0.2502444
vt 0.5004888 0.6246334
vn -0.002691031 0.002691031 0.9999928
vn -0.002691031 0.002691031 0.9999928
vn -0.002691031 0.002691031 0.9999928
vn 0.9999964 0.002691031 0
vn 0.9999964 0.002691031 0
vn 0.9999964 0.002691031 0
vn -0.002691031 -0.9999964 0
vn -0.002691031 -0.9999964 0
vn -0.002691031 -0.9999964 0
vn -0.002691031 -0.9999964 0
vn -0.4837101 0.727607 -0.4864284
vn -0.4837101 0.727607 -0.4864284
vn -0.4837101 0.727607 -0.4864284
vn -0.4837101 0.727607 -0.4864284
g ENV_CornerRamp01_0
f 3/3/3 2/2/2 1/1/1
f 6/6/6 5/5/5 4/4/4
f 9/9/9 8/8/8 7/7/7
f 9/9/9 7/7/7 10/10/10
f 13/13/13 12/12/12 11/11/11
f 13/13/13 14/14/14 12/12/12
