g Decal_09
v -3.694519 -5.626678E-05 1.765939
v -3.694519 -5.626678E-05 0.0442543
v -0.0008459091 5.65052E-05 -1.765939
v -0.0008459091 -5.626678E-05 -0.04414129
v 3.694518 -5.626678E-05 1.765939
v 3.694518 -5.626678E-05 0.0442543
vt 0.7003995 0.624817
vt 0.7003995 0.5603405
vt 0.542756 0.492162
vt 0.542756 0.556947
vt 0.384804 0.624817
vt 0.384804 0.5603405
vn 0 1 0
vn 0 1 0
vn 0 1 0
vn 0 1 0
vn 0 1 0
vn 0 1 0
g Decal_09_0
f 3/3/3 2/2/2 1/1/1
f 4/4/4 3/3/3 1/1/1
f 3/3/3 4/4/4 5/5/5
f 6/6/6 3/3/3 5/5/5
