g collisionMesh_sideWalls_03
v -16.05161 47.84264 104.6393
v -15.73862 48.26008 104.9438
v -16.03884 48.27272 105.6771
v -16.48048 47.86071 105.6869
v -15.73862 48.26008 104.9438
v -16.05161 47.84264 104.6393
v -15.00752 47.83942 104.2017
v -15.00773 48.25783 104.6375
v -15.00773 48.25783 104.6375
v -15.00752 47.83942 104.2017
v -13.95985 47.85291 104.6304
v -14.27432 48.26727 104.9376
v -14.27432 48.26727 104.9376
v -13.95985 47.85291 104.6304
v -13.52228 47.87523 105.6743
v -13.96801 48.28289 105.6683
v -13.96801 48.28289 105.6683
v -13.52228 47.87523 105.6743
v -13.95116 47.89328 106.7219
v -14.26824 48.29553 106.4016
v -14.26824 48.29553 106.4016
v -13.95116 47.89328 106.7219
v -14.99524 47.89651 107.1594
v -14.99913 48.29779 106.7079
v -14.99913 48.29779 106.7079
v -14.99524 47.89651 107.1594
v -16.04292 47.88301 106.7307
v -15.73253 48.28835 106.4078
v -15.73253 48.28835 106.4078
v -16.04292 47.88301 106.7307
v -16.48048 47.86071 105.6869
v -16.03884 48.27272 105.6771
v -15.95748 43.1565 104.7085
v -14.91339 43.15327 104.2709
v -15.00752 47.83942 104.2017
v -16.05161 47.84264 104.6393
v -14.91339 43.15327 104.2709
v -13.86571 43.16677 104.6996
v -13.95985 47.85291 104.6304
v -15.00752 47.83942 104.2017
v -13.86571 43.16677 104.6996
v -13.42815 43.18908 105.7435
v -13.52228 47.87523 105.6743
v -13.95985 47.85291 104.6304
v -13.42815 43.18908 105.7435
v -13.85703 43.20714 106.791
v -13.95116 47.89328 106.7219
v -13.52228 47.87523 105.6743
v -13.85703 43.20714 106.791
v -14.90111 43.21037 107.2286
v -14.99524 47.89651 107.1594
v -13.95116 47.89328 106.7219
v -14.90111 43.21037 107.2286
v -15.94879 43.19687 106.7999
v -16.04292 47.88301 106.7307
v -14.99524 47.89651 107.1594
v -15.94879 43.19687 106.7999
v -16.38635 43.17456 105.7561
v -16.48048 47.86071 105.6869
v -16.04292 47.88301 106.7307
v -16.38635 43.17456 105.7561
v -15.95748 43.1565 104.7085
v -16.05161 47.84264 104.6393
v -16.48048 47.86071 105.6869
v -15.73862 48.26008 104.9438
v -15.00773 48.25783 104.6375
v -15.00343 48.27781 105.6727
v -16.03884 48.27272 105.6771
v -14.27432 48.26727 104.9376
v -15.73253 48.28835 106.4078
v -13.96801 48.28289 105.6683
v -14.99913 48.29779 106.7079
v -14.26824 48.29553 106.4016
vt 0.6249999 0.6545655
vt 0.6203129 0.6884398
vt 0.5984371 0.6884398
vt 0.59375 0.6545655
vt 0.3796871 0.6884398
vt 0.3750001 0.6545655
vt 0.40625 0.6545655
vt 0.401563 0.6884398
vt 0.4109371 0.6884398
vt 0.40625 0.6545655
vt 0.4375 0.6545655
vt 0.432813 0.6884398
vt 0.4421871 0.6884398
vt 0.4375 0.6545655
vt 0.46875 0.6545655
vt 0.464063 0.6884398
vt 0.473437 0.6884398
vt 0.46875 0.6545655
vt 0.5 0.6545658
vt 0.4953132 0.6884398
vt 0.5046871 0.6884398
vt 0.5 0.6545658
vt 0.5312499 0.6545655
vt 0.526563 0.6884398
vt 0.535937 0.6884398
vt 0.5312499 0.6545655
vt 0.5624998 0.6545655
vt 0.5578128 0.6884398
vt 0.5671868 0.6884398
vt 0.5624998 0.6545655
vt 0.59375 0.6545655
vt 0.589063 0.6884398
vt 0.375 0.3125005
vt 0.40625 0.3125005
vt 0.40625 0.6545655
vt 0.3750001 0.6545655
vt 0.40625 0.3125005
vt 0.4375 0.3125005
vt 0.4375 0.6545655
vt 0.40625 0.6545655
vt 0.4375 0.3125005
vt 0.46875 0.3125005
vt 0.46875 0.6545655
vt 0.4375 0.6545655
vt 0.46875 0.3125005
vt 0.5000001 0.3125005
vt 0.5 0.6545658
vt 0.46875 0.6545655
vt 0.5000001 0.3125005
vt 0.53125 0.3125005
vt 0.5312499 0.6545655
vt 0.5 0.6545658
vt 0.53125 0.3125005
vt 0.5625 0.3125005
vt 0.5624998 0.6545655
vt 0.5312499 0.6545655
vt 0.5625 0.3125005
vt 0.59375 0.3125005
vt 0.59375 0.6545655
vt 0.5624998 0.6545655
vt 0.59375 0.3125005
vt 0.6249999 0.3125005
vt 0.6249999 0.6545655
vt 0.59375 0.6545655
vt 0.5773429 0.9192181
vt 0.4999999 0.9512545
vt 0.5 0.8375
vt 0.6093796 0.8418752
vt 0.4226569 0.9192182
vt 0.5773429 0.764531
vt 0.3906201 0.8418752
vt 0.5 0.7324947
vt 0.4226569 0.764531
vn -0.6579145 0.6985409 -0.2814056
vn -0.6579145 0.6985409 -0.2814056
vn -0.6579146 0.6985409 -0.2814057
vn -0.6579145 0.6985409 -0.2814056
vn -0.2768275 0.6930434 -0.6656256
vn -0.2768275 0.6930434 -0.6656256
vn -0.2768275 0.6930434 -0.6656256
vn -0.2768275 0.6930434 -0.6656256
vn 0.2643428 0.6956974 -0.6679283
vn 0.2643428 0.6956973 -0.6679283
vn 0.2643428 0.6956974 -0.6679282
vn 0.2643428 0.6956973 -0.6679283
vn 0.6486176 0.7049492 -0.2869527
vn 0.6486175 0.7049493 -0.2869527
vn 0.6486176 0.7049492 -0.2869527
vn 0.6486176 0.7049491 -0.2869527
vn 0.6508698 0.7153915 0.2541328
vn 0.6508698 0.7153916 0.2541327
vn 0.6508698 0.7153915 0.2541328
vn 0.6508698 0.7153915 0.2541328
vn 0.2697735 0.720893 0.6383852
vn 0.2697735 0.720893 0.6383852
vn 0.2697735 0.720893 0.6383852
vn 0.2697735 0.7208929 0.6383852
vn -0.2713974 0.7182407 0.6406823
vn -0.2713974 0.7182407 0.6406823
vn -0.2713974 0.7182407 0.6406823
vn -0.2713974 0.7182407 0.6406823
vn -0.6556727 0.708983 0.2596855
vn -0.6556726 0.708983 0.2596855
vn -0.6556727 0.708983 0.2596855
vn -0.6556727 0.7089829 0.2596855
vn -0.3864993 -0.02137717 -0.9220419
vn -0.3864993 -0.02137717 -0.9220419
vn -0.3864993 -0.02137717 -0.9220419
vn -0.3864993 -0.02137717 -0.9220419
vn 0.3787648 -0.006054776 -0.9254732
vn 0.3787648 -0.006054776 -0.9254732
vn 0.3787648 -0.006054777 -0.9254732
vn 0.3787647 -0.006054775 -0.9254732
vn 0.9220804 0.01281211 -0.3867862
vn 0.9220804 0.01281211 -0.3867862
vn 0.9220804 0.01281211 -0.3867862
vn 0.9220804 0.01281211 -0.3867862
vn 0.92532 0.02417413 0.3784157
vn 0.92532 0.02417413 0.3784158
vn 0.92532 0.02417413 0.3784157
vn 0.92532 0.02417413 0.3784158
vn 0.3864971 0.0213773 0.9220429
vn 0.3864971 0.02137729 0.9220428
vn 0.3864972 0.02137729 0.9220428
vn 0.3864971 0.0213773 0.9220429
vn -0.3787676 0.006055979 0.925472
vn -0.3787676 0.006055979 0.925472
vn -0.3787676 0.006055978 0.925472
vn -0.3787676 0.006055978 0.925472
vn -0.9220831 -0.01281138 0.3867798
vn -0.9220831 -0.01281138 0.3867798
vn -0.9220831 -0.01281138 0.3867799
vn -0.9220831 -0.01281138 0.3867799
vn -0.9253172 -0.02417427 -0.3784225
vn -0.9253172 -0.02417427 -0.3784226
vn -0.9253172 -0.02417427 -0.3784226
vn -0.9253172 -0.02417427 -0.3784226
vn -0.004991517 0.9998018 -0.01927122
vn -0.004989574 0.9998018 -0.01927118
vn -0.004989677 0.9998017 -0.0192775
vn -0.004989889 0.9998017 -0.01928302
vn -0.004987822 0.9998017 -0.0192835
vn -0.004988138 0.9998017 -0.01928273
vn -0.004989636 0.9998017 -0.01928098
vn -0.004989609 0.9998018 -0.01927482
vn -0.004991229 0.9998018 -0.01927255
g collisionMesh_sideWalls_03_0
f 3/3/3 2/2/2 1/1/1
f 4/4/4 3/3/3 1/1/1
f 7/7/7 6/6/6 5/5/5
f 8/8/8 7/7/7 5/5/5
f 11/11/11 10/10/10 9/9/9
f 12/12/12 11/11/11 9/9/9
f 15/15/15 14/14/14 13/13/13
f 16/16/16 15/15/15 13/13/13
f 19/19/19 18/18/18 17/17/17
f 20/20/20 19/19/19 17/17/17
f 23/23/23 22/22/22 21/21/21
f 24/24/24 23/23/23 21/21/21
f 27/27/27 26/26/26 25/25/25
f 28/28/28 27/27/27 25/25/25
f 31/31/31 30/30/30 29/29/29
f 32/32/32 31/31/31 29/29/29
f 35/35/35 34/34/34 33/33/33
f 36/36/36 35/35/35 33/33/33
f 39/39/39 38/38/38 37/37/37
f 40/40/40 39/39/39 37/37/37
f 43/43/43 42/42/42 41/41/41
f 44/44/44 43/43/43 41/41/41
f 47/47/47 46/46/46 45/45/45
f 48/48/48 47/47/47 45/45/45
f 51/51/51 50/50/50 49/49/49
f 52/52/52 51/51/51 49/49/49
f 55/55/55 54/54/54 53/53/53
f 56/56/56 55/55/55 53/53/53
f 59/59/59 58/58/58 57/57/57
f 60/60/60 59/59/59 57/57/57
f 63/63/63 62/62/62 61/61/61
f 64/64/64 63/63/63 61/61/61
f 67/67/67 66/66/66 65/65/65
f 67/67/67 65/65/65 68/68/68
f 67/67/67 69/69/69 66/66/66
f 67/67/67 68/68/68 70/70/70
f 67/67/67 71/71/71 69/69/69
f 67/67/67 70/70/70 72/72/72
f 67/67/67 73/73/73 71/71/71
f 67/67/67 72/72/72 73/73/73
