g ENV_SY02_TEST_CentralStruct_Hexagon_MO
v -2.699891 4.402172 4.676271
v -2.731569 4.322977 4.73129
v -2.854947 4.322977 4.603077
v -2.821768 4.402172 4.549725
v -2.675382 4.42468 4.634089
v -5.41387 4.323143 0.1709781
v -2.795425 4.42468 4.508877
v -8.296967E-05 4.42468 8.296967E-05
v -5.351015 4.402006 0.1689773
v -5.463222 4.323143 8.296967E-05
v -5.399699 4.402172 8.296967E-05
v -5.302164 4.42618 0.1671433
v -5.350681 4.42618 8.296967E-05
v 2.699891 4.402172 4.676271
v 2.854947 4.322977 4.603077
v 2.73157 4.322977 4.73129
v 2.821769 4.402172 4.549725
v 2.675383 4.42468 4.634089
v 5.413871 4.323143 0.1709781
v 2.795426 4.42468 4.508877
v -8.296967E-05 4.42468 8.296967E-05
v 5.351015 4.402006 0.1689773
v 5.463222 4.323143 8.296967E-05
v 5.399699 4.402172 8.296967E-05
v 5.350681 4.42618 8.296967E-05
v 5.302164 4.42618 0.1671433
v -2.699891 4.402172 -4.676271
v -2.854947 4.322977 -4.603078
v -2.731569 4.322977 -4.731291
v -2.821768 4.402172 -4.549726
v -2.675382 4.42468 -4.634089
v -5.41387 4.323143 -0.1709785
v -2.795425 4.42468 -4.508878
v -8.296967E-05 4.42468 8.296967E-05
v -5.351015 4.402006 -0.1689777
v -5.463222 4.323143 8.296967E-05
v -5.399699 4.402172 8.296967E-05
v -5.302164 4.42618 -0.1671438
v -5.350681 4.42618 8.296967E-05
v 2.699891 4.402172 -4.676271
v 2.73157 4.322977 -4.731291
v 2.854947 4.322977 -4.603078
v 2.821769 4.402172 -4.549726
v 2.675383 4.42468 -4.634089
v 5.413871 4.323143 -0.1709785
v 2.795426 4.42468 -4.508878
v -8.296967E-05 4.42468 8.296967E-05
v 5.351015 4.402006 -0.1689777
v 5.463222 4.323143 8.296967E-05
v 5.399699 4.402172 8.296967E-05
v 5.350681 4.42618 8.296967E-05
v 5.302164 4.42618 -0.1671438
v -2.529162 4.402006 4.71862
v -2.55884 4.322977 4.773973
v -2.731569 4.322977 4.73129
v -2.699891 4.402172 4.676271
v 2.558841 4.322977 4.773973
v -2.506988 4.42468 4.675271
v -2.675382 4.42468 4.634089
v -8.296967E-05 4.42468 8.296967E-05
v 2.529163 4.402006 4.71862
v 2.73157 4.322977 4.73129
v 2.699891 4.402172 4.676271
v 2.506988 4.42468 4.675271
v 2.675383 4.42468 4.634089
v -2.529162 4.402006 -4.71862
v -2.731569 4.322977 -4.731291
v -2.55884 4.322977 -4.773973
v -2.699891 4.402172 -4.676271
v 2.558841 4.322977 -4.773973
v -2.506988 4.42468 -4.675271
v -2.675382 4.42468 -4.634089
v -8.296967E-05 4.42468 8.296967E-05
v 2.529163 4.402006 -4.71862
v 2.73157 4.322977 -4.731291
v 2.699891 4.402172 -4.676271
v 2.506988 4.42468 -4.675271
v 2.675383 4.42468 -4.634089
vt 0.008702144 0.970913
vt 0.008702144 0.970913
vt 0.008702144 0.9718723
vt 0.009661477 0.9718723
vt 0.009661477 0.970913
vt 0.0192548 0.9891403
vt 0.009661477 0.9718723
vt 0.0307668 0.970913
vt 0.0192548 0.9891403
vt 0.0192548 0.9900996
vt 0.02021414 0.9891403
vt 0.0192548 0.9891403
vt 0.02021414 0.9891403
vt 0.02021414 0.9526857
vt 0.02021414 0.9517263
vt 0.0192548 0.9517263
vt 0.02021414 0.9517263
vt 0.02021414 0.9526857
vt 0.04131946 0.9517263
vt 0.02021414 0.9526857
vt 0.0307668 0.970913
vt 0.04036013 0.9517263
vt 0.04131946 0.9517263
vt 0.04131946 0.9526857
vt 0.04131946 0.9526857
vt 0.04036013 0.9526857
vt 0.04131946 0.9891403
vt 0.04131946 0.9900996
vt 0.04131946 0.9900996
vt 0.04036013 0.9900996
vt 0.04131946 0.9891403
vt 0.02021414 0.9900996
vt 0.04036013 0.9891403
vt 0.0307668 0.970913
vt 0.02021414 0.9900996
vt 0.0192548 0.9900996
vt 0.02021414 0.9891403
vt 0.02021414 0.9891403
vt 0.02021414 0.9891403
vt 0.05187212 0.970913
vt 0.05283145 0.970913
vt 0.05283145 0.9699537
vt 0.05187212 0.9699537
vt 0.05187212 0.970913
vt 0.04227879 0.9526857
vt 0.05187212 0.9699537
vt 0.0307668 0.970913
vt 0.04227879 0.9526857
vt 0.04131946 0.9517263
vt 0.04131946 0.9526857
vt 0.04131946 0.9526857
vt 0.04131946 0.9526857
vt 0.009661477 0.9699537
vt 0.008702144 0.9699537
vt 0.008702144 0.970913
vt 0.008702144 0.970913
vt 0.0192548 0.9526857
vt 0.009661477 0.9699537
vt 0.009661477 0.970913
vt 0.0307668 0.970913
vt 0.0192548 0.9526857
vt 0.0192548 0.9517263
vt 0.02021414 0.9526857
vt 0.0192548 0.9526857
vt 0.02021414 0.9526857
vt 0.04227879 0.9891403
vt 0.04131946 0.9900996
vt 0.04227879 0.9891403
vt 0.04131946 0.9891403
vt 0.05283145 0.9718723
vt 0.04131946 0.9891403
vt 0.04131946 0.9891403
vt 0.0307668 0.970913
vt 0.05187212 0.9718723
vt 0.05283145 0.970913
vt 0.05187212 0.970913
vt 0.05187212 0.9718723
vt 0.05187212 0.970913
vn -0.3439297 0.7208201 0.601773
vn -0.3927858 0.6231077 0.6763549
vn -0.7068612 0.5742516 0.4130162
vn -0.6440461 0.6649845 0.3781537
vn -0.008915623 0.9999602 0
vn -0.7138407 0.5742516 0.4008324
vn -0.01589345 0.9998737 0
vn -0.001936555 0.9999982 0
vn -0.6510256 0.6649845 0.3660072
vn -0.7766557 0.6231077 -0.09242633
vn -0.6929023 0.7208201 -0.01745733
vn -0.01589345 0.9998737 0
vn -0.008915623 0.9999602 0
vn 0.3470361 0.7208201 0.5999869
vn 0.7029881 0.5742516 0.4195745
vn 0.3889128 0.6231077 0.6785895
vn 0.6471525 0.6649845 0.3728127
vn 0.005042856 0.9999873 0
vn 0.7099676 0.5742516 0.4076532
vn 0.01202153 0.9999278 0
vn -0.001936555 0.9999982 0
vn 0.6541319 0.6649845 0.3604261
vn 0.7797621 0.6231077 -0.06089216
vn 0.6946175 0.7193793 0
vn 0.01202153 0.9999278 0
vn 0.01202153 0.9999278 0
vn -0.3439297 0.7208201 -0.601773
vn -0.7068612 0.5742516 -0.4130162
vn -0.3927858 0.6231077 -0.6763549
vn -0.6440461 0.6649845 -0.3781537
vn -0.008915623 0.9999602 0
vn -0.7138407 0.5742516 -0.4008324
vn -0.01589345 0.9998737 0
vn -0.001936555 0.9999982 0
vn -0.6510256 0.6649845 -0.3660072
vn -0.7766557 0.6231077 -0.09242633
vn -0.6929023 0.7208201 -0.01745733
vn -0.01589345 0.9998737 0
vn -0.008915623 0.9999602 0
vn 0.3470361 0.7208201 -0.5999869
vn 0.3889128 0.6231077 -0.6785895
vn 0.7029881 0.5742516 -0.4195745
vn 0.6471525 0.6649845 -0.3728127
vn 0.005042856 0.9999873 0
vn 0.7099676 0.5742516 -0.4076532
vn 0.01202153 0.9999278 0
vn -0.001936555 0.9999982 0
vn 0.6541319 0.6649845 -0.3604261
vn 0.7797621 0.6231077 -0.06089216
vn 0.6946175 0.7193793 0
vn 0.01202153 0.9999278 0
vn 0.01202153 0.9999278 0
vn -0.001936555 0.6649845 0.7468546
vn -0.008915961 0.5742516 0.8186303
vn -0.3927858 0.6231077 0.6763549
vn -0.3439297 0.7208201 0.601773
vn 0.01202238 0.5742516 0.8185906
vn -0.001936555 0.9999982 0
vn -0.008915623 0.9999602 0
vn -0.001936555 0.9999982 0
vn 0.005042911 0.6649845 0.7468401
vn 0.3889128 0.6231077 0.6785895
vn 0.3470361 0.7208201 0.5999869
vn -0.001936555 0.9999982 0
vn 0.005042856 0.9999873 0
vn -0.001936555 0.6649845 -0.7468546
vn -0.3927858 0.6231077 -0.6763549
vn -0.008915961 0.5742516 -0.8186303
vn -0.3439297 0.7208201 -0.601773
vn 0.01202238 0.5742516 -0.8185906
vn -0.001936555 0.9999982 0
vn -0.008915623 0.9999602 0
vn -0.001936555 0.9999982 0
vn 0.005042911 0.6649845 -0.7468401
vn 0.3889128 0.6231077 -0.6785895
vn 0.3470361 0.7208201 -0.5999869
vn -0.001936555 0.9999982 0
vn 0.005042856 0.9999873 0
g ENV_SY02_TEST_CentralStruct_Hexagon_MO_0
f 3/3/3 2/2/2 1/1/1
f 4/4/4 3/3/3 1/1/1
f 1/1/1 5/5/5 4/4/4
f 6/6/6 3/3/3 4/4/4
f 5/5/5 7/7/7 4/4/4
f 5/5/5 8/8/8 7/7/7
f 9/9/9 6/6/6 4/4/4
f 4/4/4 7/7/7 9/9/9
f 10/10/10 6/6/6 9/9/9
f 11/11/11 10/10/10 9/9/9
f 7/7/7 8/8/8 12/12/12
f 7/7/7 12/12/12 9/9/9
f 9/9/9 12/12/12 11/11/11
f 12/12/12 8/8/8 13/13/13
f 12/12/12 13/13/13 11/11/11
f 16/16/16 15/15/15 14/14/14
f 15/15/15 17/17/17 14/14/14
f 18/18/18 14/14/14 17/17/17
f 15/15/15 19/19/19 17/17/17
f 20/20/20 18/18/18 17/17/17
f 21/21/21 18/18/18 20/20/20
f 19/19/19 22/22/22 17/17/17
f 20/20/20 17/17/17 22/22/22
f 19/19/19 23/23/23 22/22/22
f 23/23/23 24/24/24 22/22/22
f 22/22/22 24/24/24 25/25/25
f 21/21/21 20/20/20 26/26/26
f 21/21/21 26/26/26 25/25/25
f 26/26/26 20/20/20 22/22/22
f 26/26/26 22/22/22 25/25/25
f 29/29/29 28/28/28 27/27/27
f 28/28/28 30/30/30 27/27/27
f 31/31/31 27/27/27 30/30/30
f 28/28/28 32/32/32 30/30/30
f 33/33/33 31/31/31 30/30/30
f 34/34/34 31/31/31 33/33/33
f 32/32/32 35/35/35 30/30/30
f 33/33/33 30/30/30 35/35/35
f 32/32/32 36/36/36 35/35/35
f 36/36/36 37/37/37 35/35/35
f 34/34/34 33/33/33 38/38/38
f 38/38/38 33/33/33 35/35/35
f 38/38/38 35/35/35 37/37/37
f 34/34/34 38/38/38 39/39/39
f 39/39/39 38/38/38 37/37/37
f 42/42/42 41/41/41 40/40/40
f 43/43/43 42/42/42 40/40/40
f 40/40/40 44/44/44 43/43/43
f 45/45/45 42/42/42 43/43/43
f 44/44/44 46/46/46 43/43/43
f 44/44/44 47/47/47 46/46/46
f 48/48/48 45/45/45 43/43/43
f 43/43/43 46/46/46 48/48/48
f 49/49/49 45/45/45 48/48/48
f 50/50/50 49/49/49 48/48/48
f 50/50/50 48/48/48 51/51/51
f 52/52/52 47/47/47 51/51/51
f 46/46/46 47/47/47 52/52/52
f 46/46/46 52/52/52 48/48/48
f 48/48/48 52/52/52 51/51/51
f 55/55/55 54/54/54 53/53/53
f 56/56/56 55/55/55 53/53/53
f 54/54/54 57/57/57 53/53/53
f 53/53/53 58/58/58 56/56/56
f 58/58/58 59/59/59 56/56/56
f 58/58/58 60/60/60 59/59/59
f 57/57/57 61/61/61 53/53/53
f 58/58/58 53/53/53 61/61/61
f 57/57/57 62/62/62 61/61/61
f 62/62/62 63/63/63 61/61/61
f 60/60/60 58/58/58 64/64/64
f 64/64/64 58/58/58 61/61/61
f 64/64/64 61/61/61 63/63/63
f 60/60/60 64/64/64 65/65/65
f 65/65/65 64/64/64 63/63/63
f 68/68/68 67/67/67 66/66/66
f 67/67/67 69/69/69 66/66/66
f 70/70/70 68/68/68 66/66/66
f 71/71/71 66/66/66 69/69/69
f 72/72/72 71/71/71 69/69/69
f 73/73/73 71/71/71 72/72/72
f 74/74/74 70/70/70 66/66/66
f 66/66/66 71/71/71 74/74/74
f 75/75/75 70/70/70 74/74/74
f 76/76/76 75/75/75 74/74/74
f 71/71/71 73/73/73 77/77/77
f 71/71/71 77/77/77 74/74/74
f 74/74/74 77/77/77 76/76/76
f 77/77/77 73/73/73 78/78/78
f 77/77/77 78/78/78 76/76/76
