g Hexagon_Col_MO
v -2.295493 3.504753E-05 3.504753E-05
v -1.147729 3.504753E-05 1.987956
v -3.504753E-05 3.504753E-05 3.504753E-05
v -1.147729 3.504753E-05 -1.987956
v 1.147729 3.504753E-05 1.987956
v 1.147729 3.504753E-05 -1.987956
v 2.295493 3.504753E-05 -3.504753E-05
v -1.147729 0.4968576 1.987956
v -2.295493 0.4968576 3.504753E-05
v -3.504753E-05 0.4968576 3.504753E-05
v 1.147729 0.4968576 1.987956
v -1.147729 0.4968576 -1.987956
v 2.295493 0.4968576 3.504753E-05
v 1.147729 0.4968576 -1.987956
v -1.147729 0.4968576 1.987956
v -2.295493 3.504753E-05 3.504753E-05
v -2.295493 0.4968576 3.504753E-05
v -1.147729 3.504753E-05 1.987956
v -1.147729 3.504753E-05 -1.987956
v 1.147729 0.4968576 1.987956
v -1.147729 0.4968576 -1.987956
v 1.147729 3.504753E-05 1.987956
v 1.147729 3.504753E-05 -1.987956
v 2.295493 0.4968576 3.504753E-05
v 1.147729 0.4968576 -1.987956
v 2.295493 3.504753E-05 -3.504753E-05
vt 0 0.5004888
vt 0.2502444 0
vt 0.5004888 0.5004888
vt 0.2502444 1
vt 0.7497556 0
vt 0.7497556 1
vt 1 0.5004888
vt 0.2502444 0
vt 0 0.5004888
vt 0.5004888 0.5004888
vt 0.7497556 0
vt 0.2502444 1
vt 1 0.5004888
vt 0.7497556 1
vt 0.2502444 0
vt 0 0.5004888
vt 0 0.5004888
vt 0.2502444 0
vt 0.2502444 1
vt 0.7497556 0
vt 0.2502444 1
vt 0.7497556 0
vt 0.7497556 1
vt 1 0.5004888
vt 0.7497556 1
vt 1 0.5004888
vn -0.003921509 -0.9999924 0
vn -0.003921509 -0.9999924 0
vn -0.003921509 -0.9999924 0
vn -0.003921509 -0.9999924 0
vn -0.003921509 -0.9999924 0
vn -0.003921509 -0.9999924 0
vn -0.003921509 -0.9999924 0
vn -0.003921509 0.9999923 -0.000345267
vn -0.003921509 0.9999923 -0.000345267
vn -0.003921509 0.9999923 -0.000345267
vn -0.003921509 0.9999923 -0.000345267
vn -0.003921509 0.9999923 -0.000345267
vn -0.003921509 0.9999923 -0.000345267
vn -0.003921509 0.9999923 -0.000345267
vn -0.4980353 0.003921509 0.8671479
vn -0.9999923 0.003921509 -0.0003449296
vn -0.9999923 0.003921509 -0.0003449296
vn -0.4980353 0.003921509 0.8671479
vn -0.4980353 0.003921509 -0.8671479
vn 0.4980354 0.003921509 0.8671478
vn -0.4980353 0.003921509 -0.8671479
vn 0.4980354 0.003921509 0.8671478
vn 0.4980354 0.003921509 -0.8671478
vn 0.9999924 0.003921509 0
vn 0.4980354 0.003921509 -0.8671478
vn 0.9999924 0.003921509 0
g Hexagon_Col_MO_0
f 3/3/3 2/2/2 1/1/1
f 3/3/3 1/1/1 4/4/4
f 3/3/3 5/5/5 2/2/2
f 3/3/3 4/4/4 6/6/6
f 3/3/3 7/7/7 5/5/5
f 3/3/3 6/6/6 7/7/7
f 10/10/10 9/9/9 8/8/8
f 10/10/10 8/8/8 11/11/11
f 10/10/10 12/12/12 9/9/9
f 10/10/10 11/11/11 13/13/13
f 10/10/10 14/14/14 12/12/12
f 10/10/10 13/13/13 14/14/14
f 17/17/17 16/16/16 15/15/15
f 18/18/18 15/15/15 16/16/16
f 16/16/16 17/17/17 19/19/19
f 15/15/15 18/18/18 20/20/20
f 21/21/21 19/19/19 17/17/17
f 22/22/22 20/20/20 18/18/18
f 19/19/19 21/21/21 23/23/23
f 20/20/20 22/22/22 24/24/24
f 25/25/25 23/23/23 21/21/21
f 26/26/26 24/24/24 22/22/22
f 23/23/23 25/25/25 26/26/26
f 24/24/24 26/26/26 25/25/25
